<svg width="91" height="91" viewBox="0 0 91 91" fill="none" xmlns="http://www.w3.org/2000/svg">
<path d="M75.5174 54.4241C75.5174 67.868 70.2777 79.2543 58.1169 83.1262C55.2325 84.0446 48.5901 81.417 45.4013 81.417C42.2124 81.417 35.5701 84.0446 32.6856 83.1262C20.5248 79.2543 15.2852 67.868 15.2852 54.4241C15.2852 40.9803 18.0709 30.9692 30.2317 27.0974C39.155 24.2559 42.2124 28.4349 45.4013 28.4349C48.5901 28.4349 52.763 24.9656 59.4554 27.0964C71.6162 30.9682 75.5174 40.9803 75.5174 54.4241Z" fill="#CA9D73"/>
<path d="M24.4556 13.8569C22.3278 20.7353 31.5811 34.4973 42.983 32.3842C44.3175 21.7618 31.5276 12.4856 24.4556 13.8569Z" fill="#AF8524"/>
<path d="M66.9596 11.7447C60.0811 9.61685 46.3191 18.8702 48.4322 30.272C59.0546 31.6065 68.3308 18.8167 66.9596 11.7447Z" fill="#AF8524"/>
<path d="M48.7623 22.4196C49.2756 21.3246 48.8041 20.0209 47.7091 19.5076C46.6141 18.9944 45.3104 19.4659 44.7971 20.5609L46.7797 21.4902L48.7623 22.4196ZM46.7797 21.4902L44.7971 20.5609C44.0387 22.1788 43.353 23.8572 43.0536 25.7874C42.7499 27.7449 42.8607 29.836 43.511 32.3072L45.6285 31.75L47.7461 31.1928C47.2268 29.2197 47.1822 27.7403 47.3811 26.4587C47.5841 25.1498 48.0588 23.9205 48.7623 22.4196L46.7797 21.4902Z" fill="#795231"/>
</svg>
