<svg width="95" height="95" viewBox="0 0 95 95" fill="none" xmlns="http://www.w3.org/2000/svg">
<path d="M37.647 81.917C37.647 80.2968 41.8633 52.4997 27.8359 50.0215L27.3617 46.7181C26.6865 45.8871 31.4471 46.4026 34.2189 47.5284C37.1243 48.7085 39.361 51.4242 39.361 50.0215C39.361 48.8994 32.2857 41.0646 31.7143 40.7011L39.361 37.3866C40.1921 36.919 40.836 39.5781 42.5812 40.7004C44.3264 41.8227 46.8403 52.8787 47.152 56.4103C47.6506 51.2994 53.8522 42.2635 57.5017 40.7004L59.1129 42.2635C59.7882 43.3021 60.7335 43.985 59.1129 45.1069C57.4924 46.2288 54.2158 52.9304 53.8522 54.2289L64.5154 47.5284L67.3588 50.5093C55.3607 55.2905 54.1119 75.9438 53.8522 81.917H37.647Z" fill="#7D5D4A"/>
<path d="M46.7637 13.084C51.2812 13.084 55.3187 15.1387 57.9932 18.3643C59.4343 16.3153 61.8154 14.9756 64.5107 14.9756C68.9092 14.9756 72.4754 18.541 72.4756 22.9395C72.4756 22.9599 72.4738 22.9806 72.4736 23.001C79.8953 23.6805 85.708 29.9217 85.708 37.5205C85.7079 45.5732 79.1797 52.1016 71.127 52.1016C63.3863 52.1014 57.0553 46.0691 56.5762 38.4492C53.9858 40.8076 50.5428 42.2461 46.7637 42.2461C43.334 42.2461 40.1814 41.0609 37.6914 39.0791C36.3803 42.9652 33.4765 46.1163 29.7559 47.7588C29.5668 52.6488 25.5457 56.5556 20.6094 56.5557C15.5524 56.5557 11.4531 52.4554 11.4531 47.3984C11.4532 45.9588 11.7849 44.5967 12.377 43.3848C10.4445 40.9113 9.29308 37.7981 9.29297 34.416C9.29297 26.3632 15.8212 19.835 23.874 19.835C24.0824 19.835 24.2898 19.84 24.4961 19.8486C25.703 16.9853 28.5364 14.9756 31.8389 14.9756C33.7973 14.9757 35.5896 15.6838 36.9766 16.8564C39.564 14.5121 42.9972 13.084 46.7637 13.084Z" fill="#B59468"/>
</svg>
